<svg width="257" height="318" viewBox="0 0 257 318" fill="none" xmlns="http://www.w3.org/2000/svg">
<path fill-rule="evenodd" clip-rule="evenodd" d="M227.778 262.435C228.23 262.683 228.797 262.547 229.084 262.118C242.335 242.28 250.011 218.588 250.011 192.936C250.011 123.897 194.044 67.9301 125.005 67.9301C55.9668 67.9301 0 123.897 0 192.936C0 218.511 7.68081 242.293 20.8616 262.1C21.1555 262.542 21.7446 262.672 22.2 262.4L51.3185 244.991C51.7838 244.712 52.3158 244.566 52.858 244.566L124.429 244.566H194.463C194.968 244.566 195.465 244.693 195.907 244.936L227.778 262.435Z" fill="black" fill-opacity="0.63"/>
<path d="M126.853 105.076C176.324 105.076 216.427 145.18 216.427 194.65C216.427 213.442 210.64 230.883 200.751 245.287H52.9555C43.0666 230.883 37.2797 213.442 37.2797 194.65C37.2797 145.18 77.3832 105.076 126.853 105.076Z" fill="url(#paint0_linear_26_2)" fill-opacity="0.2"/>
<path d="M125.005 92.3056C69.429 92.3056 24.3755 137.359 24.3755 192.936C24.3755 211.729 29.5274 229.319 38.4959 244.371M124.973 92.3056C180.55 92.3056 225.603 137.359 225.603 192.936C225.603 211.729 220.451 229.319 211.483 244.371" stroke="white" stroke-width="9" stroke-linecap="round" stroke-linejoin="bevel" stroke-dasharray="0.1 20"/>
<path d="M125.005 92.3056C69.429 92.3056 24.3755 137.359 24.3755 192.936C24.3755 211.729 29.5274 229.319 38.4959 244.371M124.973 92.3056C180.55 92.3056 225.603 137.359 225.603 192.936C225.603 211.729 220.451 229.319 211.483 244.371" stroke="url(#paint1_linear_26_2)" style="mix-blend-mode:hard-light" stroke-width="9" stroke-linecap="round" stroke-linejoin="bevel" stroke-dasharray="0.1 20"/>
<g filter="url(#filter0_f_26_2)">
<path d="M119.915 87.2181H129.564L132.818 162.315H117.193L119.915 87.2181Z" fill="url(#paint2_linear_26_2)" style="mix-blend-mode:hard-light"/>
<path d="M129.085 87.7181L132.296 161.815H117.711L120.397 87.7181H129.085Z" stroke="url(#paint3_linear_26_2)" stroke-miterlimit="16"/>
</g>
<path d="M224.614 266.646C225.134 266.94 225.279 267.625 224.924 268.105C200.985 300.455 166.913 317.941 124.231 317.941C81.5221 317.941 45.1882 294.953 25.1972 268.228C24.8453 267.758 24.9826 267.091 25.4857 266.788L53.6677 249.786C54.1354 249.504 54.6712 249.355 55.2174 249.355L125.048 249.355H193.279C193.797 249.355 194.307 249.489 194.757 249.744L224.614 266.646Z" fill="black" fill-opacity="0.63"/>
<path d="M112.943 196.272C111.279 196.272 109.85 195.984 108.655 195.408C107.471 194.821 106.506 194.01 105.759 192.976C105.023 191.941 104.479 190.73 104.127 189.344C103.786 187.957 103.615 186.464 103.615 184.864C103.615 182.613 103.941 180.629 104.591 178.912C105.242 177.184 106.245 175.834 107.599 174.864C108.965 173.893 110.709 173.408 112.831 173.408C114.442 173.408 115.829 173.69 116.991 174.256C118.154 174.81 119.114 175.6 119.871 176.624C120.629 177.637 121.189 178.842 121.551 180.24C121.925 181.637 122.111 183.173 122.111 184.848C122.111 187.141 121.775 189.146 121.103 190.864C120.431 192.581 119.418 193.914 118.063 194.864C116.709 195.802 115.002 196.272 112.943 196.272ZM112.879 192.176C113.893 192.176 114.698 191.861 115.295 191.232C115.903 190.592 116.346 189.722 116.623 188.624C116.901 187.514 117.039 186.256 117.039 184.848C117.039 183.365 116.89 182.08 116.591 180.992C116.303 179.893 115.85 179.04 115.231 178.432C114.623 177.824 113.839 177.52 112.879 177.52C111.898 177.52 111.098 177.829 110.479 178.448C109.871 179.066 109.423 179.925 109.135 181.024C108.847 182.122 108.703 183.397 108.703 184.848C108.703 186.277 108.837 187.541 109.103 188.64C109.381 189.738 109.823 190.602 110.431 191.232C111.05 191.861 111.866 192.176 112.879 192.176ZM132.913 196.272C131.249 196.272 129.82 195.984 128.625 195.408C127.441 194.821 126.476 194.01 125.729 192.976C124.993 191.941 124.449 190.73 124.097 189.344C123.756 187.957 123.585 186.464 123.585 184.864C123.585 182.613 123.911 180.629 124.561 178.912C125.212 177.184 126.215 175.834 127.569 174.864C128.935 173.893 130.679 173.408 132.801 173.408C134.412 173.408 135.799 173.69 136.961 174.256C138.124 174.81 139.084 175.6 139.841 176.624C140.599 177.637 141.159 178.842 141.521 180.24C141.895 181.637 142.081 183.173 142.081 184.848C142.081 187.141 141.745 189.146 141.073 190.864C140.401 192.581 139.388 193.914 138.033 194.864C136.679 195.802 134.972 196.272 132.913 196.272ZM132.849 192.176C133.863 192.176 134.668 191.861 135.265 191.232C135.873 190.592 136.316 189.722 136.593 188.624C136.871 187.514 137.009 186.256 137.009 184.848C137.009 183.365 136.86 182.08 136.561 180.992C136.273 179.893 135.82 179.04 135.201 178.432C134.593 177.824 133.809 177.52 132.849 177.52C131.868 177.52 131.068 177.829 130.449 178.448C129.841 179.066 129.393 179.925 129.105 181.024C128.817 182.122 128.673 183.397 128.673 184.848C128.673 186.277 128.807 187.541 129.073 188.64C129.351 189.738 129.793 190.602 130.401 191.232C131.02 191.861 131.836 192.176 132.849 192.176ZM152.883 196.272C151.219 196.272 149.79 195.984 148.595 195.408C147.411 194.821 146.446 194.01 145.699 192.976C144.963 191.941 144.419 190.73 144.067 189.344C143.726 187.957 143.555 186.464 143.555 184.864C143.555 182.613 143.881 180.629 144.531 178.912C145.182 177.184 146.185 175.834 147.539 174.864C148.905 173.893 150.649 173.408 152.771 173.408C154.382 173.408 155.769 173.69 156.931 174.256C158.094 174.81 159.054 175.6 159.811 176.624C160.569 177.637 161.129 178.842 161.491 180.24C161.865 181.637 162.051 183.173 162.051 184.848C162.051 187.141 161.715 189.146 161.043 190.864C160.371 192.581 159.358 193.914 158.003 194.864C156.649 195.802 154.942 196.272 152.883 196.272ZM152.819 192.176C153.833 192.176 154.638 191.861 155.235 191.232C155.843 190.592 156.286 189.722 156.563 188.624C156.841 187.514 156.979 186.256 156.979 184.848C156.979 183.365 156.83 182.08 156.531 180.992C156.243 179.893 155.79 179.04 155.171 178.432C154.563 177.824 153.779 177.52 152.819 177.52C151.838 177.52 151.038 177.829 150.419 178.448C149.811 179.066 149.363 179.925 149.075 181.024C148.787 182.122 148.643 183.397 148.643 184.848C148.643 186.277 148.777 187.541 149.043 188.64C149.321 189.738 149.763 190.602 150.371 191.232C150.99 191.861 151.806 192.176 152.819 192.176Z" fill="white"/>
<g filter="url(#filter1_f_26_2)">
<ellipse cx="125.048" cy="110.933" rx="36.1543" ry="23.7151" fill="#FF4842" fill-opacity="0.5"/>
</g>
<path d="M68.186 176.931C68.186 176.792 68.2979 176.681 68.436 176.681H94.184C94.3221 176.681 94.434 176.792 94.434 176.931V193.315C94.434 193.453 94.3221 193.565 94.184 193.565H68.436C68.2979 193.565 68.186 193.453 68.186 193.315V176.931Z" fill="white" fill-opacity="0.12"/>
<path d="M78.2328 188.689C78.2328 188.313 78.2328 187.948 78.2328 187.594C78.2328 187.238 78.2328 186.834 78.2328 186.384V183.949C78.2328 183.479 78.2328 183.061 78.2328 182.694C78.2328 182.324 78.2328 181.946 78.2328 181.559C78.5028 181.559 78.8011 181.559 79.1278 181.559C79.4578 181.559 79.8028 181.559 80.1628 181.559C80.5261 181.559 80.8894 181.559 81.2528 181.559C81.7928 181.559 82.2728 181.638 82.6928 181.794C83.1161 181.951 83.4728 182.181 83.7628 182.484C84.0561 182.784 84.2794 183.154 84.4328 183.594C84.5861 184.034 84.6628 184.538 84.6628 185.104C84.6628 185.608 84.5944 186.078 84.4578 186.514C84.3244 186.948 84.1094 187.328 83.8128 187.654C83.5161 187.981 83.1228 188.236 82.6328 188.419C82.1428 188.599 81.5444 188.689 80.8378 188.689C80.4978 188.689 80.1778 188.689 79.8778 188.689C79.5778 188.689 79.2911 188.689 79.0178 188.689C78.7478 188.689 78.4861 188.689 78.2328 188.689ZM80.2978 187.059H80.8278C81.2444 187.059 81.5761 186.974 81.8228 186.804C82.0694 186.631 82.2461 186.396 82.3528 186.099C82.4594 185.799 82.5128 185.459 82.5128 185.079C82.5128 184.796 82.4811 184.539 82.4178 184.309C82.3578 184.079 82.2611 183.881 82.1278 183.714C81.9978 183.544 81.8311 183.414 81.6278 183.324C81.4244 183.234 81.1794 183.189 80.8928 183.189H80.2978C80.2978 183.376 80.2978 183.568 80.2978 183.764C80.2978 183.961 80.2978 184.191 80.2978 184.454V185.859C80.2978 186.103 80.2978 186.319 80.2978 186.509C80.2978 186.699 80.2978 186.883 80.2978 187.059Z" fill="white"/>
<path d="M42.0801 268.454L56.4369 260.165L56.4369 276.743L42.0801 268.454Z" fill="white" fill-opacity="0.2"/>
<path d="M207.931 268.454L193.574 260.165L193.574 276.743L207.931 268.454Z" fill="white" fill-opacity="0.2"/>
<path d="M178.694 200.7C178.694 200.317 178.694 199.945 178.694 199.585C178.694 199.225 178.694 198.822 178.694 198.375V195.955C178.694 195.495 178.694 195.08 178.694 194.71C178.694 194.34 178.694 193.96 178.694 193.57H180.344C180.344 193.96 180.344 194.34 180.344 194.71C180.344 195.08 180.344 195.495 180.344 195.955V198.375C180.344 198.822 180.344 199.225 180.344 199.585C180.344 199.945 180.344 200.317 180.344 200.7H178.694ZM174.249 200.7C174.249 200.317 174.249 199.945 174.249 199.585C174.249 199.225 174.249 198.822 174.249 198.375V195.955C174.249 195.495 174.249 195.08 174.249 194.71C174.249 194.34 174.249 193.96 174.249 193.57H175.894C175.894 193.96 175.894 194.34 175.894 194.71C175.894 195.08 175.894 195.495 175.894 195.955V198.375C175.894 198.822 175.894 199.225 175.894 199.585C175.894 199.945 175.894 200.317 175.894 200.7H174.249ZM175.444 197.795V196.425H179.179V197.795H175.444Z" fill="white" fill-opacity="0.38"/>
<path d="M174.244 187.812C174.244 187.429 174.244 187.057 174.244 186.697C174.244 186.337 174.244 185.934 174.244 185.487V183.067C174.244 182.607 174.244 182.192 174.244 181.822C174.244 181.452 174.244 181.072 174.244 180.682C174.534 180.682 174.922 180.682 175.409 180.682C175.899 180.682 176.464 180.682 177.104 180.682C177.68 180.682 178.162 180.754 178.549 180.897C178.939 181.04 179.23 181.277 179.424 181.607C179.62 181.934 179.719 182.374 179.719 182.927C179.719 183.397 179.635 183.812 179.469 184.172C179.302 184.529 179.032 184.809 178.659 185.012C178.285 185.212 177.792 185.312 177.179 185.312C177.015 185.312 176.84 185.312 176.654 185.312C176.47 185.312 176.29 185.312 176.114 185.312C175.937 185.312 175.785 185.312 175.659 185.312V184.062H176.804C177.09 184.062 177.325 184.024 177.509 183.947C177.692 183.87 177.827 183.752 177.914 183.592C178.004 183.429 178.049 183.219 178.049 182.962C178.049 182.759 178.017 182.592 177.954 182.462C177.894 182.332 177.812 182.232 177.709 182.162C177.605 182.092 177.49 182.044 177.364 182.017C177.24 181.987 177.115 181.972 176.989 181.972H175.079L175.864 180.942C175.864 181.332 175.864 181.712 175.864 182.082C175.864 182.452 175.864 182.867 175.864 183.327V185.487C175.864 185.934 175.864 186.337 175.864 186.697C175.864 187.057 175.864 187.429 175.864 187.812H174.244Z" fill="white" fill-opacity="0.38"/>
<path d="M178.354 174.315C178.134 173.998 177.925 173.701 177.729 173.425C177.535 173.145 177.345 172.87 177.159 172.6L176.219 171.255H175.759V169.965H176.199L177.039 168.865C177.239 168.605 177.437 168.346 177.634 168.09C177.83 167.83 178.059 167.528 178.319 167.185H180.214C179.904 167.561 179.6 167.931 179.304 168.295C179.01 168.658 178.715 169.025 178.419 169.395L177.289 170.79L177.259 170.065L178.514 171.8C178.707 172.066 178.914 172.353 179.134 172.66C179.357 172.966 179.574 173.265 179.784 173.555C179.994 173.845 180.179 174.098 180.339 174.315H178.354ZM174.249 174.315C174.249 173.931 174.249 173.56 174.249 173.2C174.249 172.84 174.249 172.436 174.249 171.99V169.57C174.249 169.11 174.249 168.695 174.249 168.325C174.249 167.955 174.249 167.575 174.249 167.185H175.889C175.889 167.575 175.889 167.955 175.889 168.325C175.889 168.695 175.889 169.11 175.889 169.57V171.99C175.889 172.436 175.889 172.84 175.889 173.2C175.889 173.56 175.889 173.931 175.889 174.315H174.249Z" fill="white" fill-opacity="0.38"/>
<rect x="70.5581" y="255.794" width="108.894" height="25.4195" fill="black" fill-opacity="0.2"/>
<circle cx="125.069" cy="268.454" r="7.92321" stroke="black" stroke-opacity="0.25" stroke-linecap="round"/>
<circle cx="145.373" cy="268.454" r="7.92321" stroke="black" stroke-opacity="0.25" stroke-linecap="round" stroke-dasharray="4 4"/>
<circle cx="165.677" cy="268.454" r="7.92321" stroke="black" stroke-opacity="0.25" stroke-linecap="round" stroke-dasharray="4 4"/>
<circle cx="84.4623" cy="268.454" r="7.92321" stroke="black" stroke-opacity="0.25" stroke-linecap="round" stroke-dasharray="4 4"/>
<path d="M78.8006 270.618C78.6406 270.556 78.5926 270.446 78.6566 270.288L80.0846 266.772C80.1446 266.64 80.2386 266.574 80.3666 266.574H80.3786C80.5086 266.58 80.5966 266.646 80.6426 266.772L82.0946 270.288C82.1586 270.446 82.1126 270.556 81.9566 270.618C81.7986 270.68 81.6886 270.634 81.6266 270.48L81.3026 269.694H79.4336L79.1246 270.48C79.0626 270.636 78.9546 270.682 78.8006 270.618ZM79.6316 269.19H81.0956L80.3486 267.372L79.6316 269.19ZM83.2407 270.642C83.0727 270.642 82.9887 270.558 82.9887 270.39V266.826C82.9887 266.658 83.0727 266.574 83.2407 266.574H84.8067C85.1247 266.574 85.3687 266.658 85.5387 266.826C85.7107 266.994 85.7967 267.234 85.7967 267.546V267.708C85.7967 267.978 85.7117 268.187 85.5417 268.335C85.8597 268.513 86.0187 268.838 86.0187 269.31V269.514C86.0187 269.882 85.9207 270.162 85.7247 270.354C85.5307 270.546 85.2507 270.642 84.8847 270.642H83.2407ZM83.4927 270.138H84.8847C85.1107 270.138 85.2717 270.09 85.3677 269.994C85.4657 269.896 85.5147 269.736 85.5147 269.514V269.31C85.5147 269.088 85.4677 268.93 85.3737 268.836C85.2797 268.74 85.1167 268.692 84.8847 268.692H83.4927V270.138ZM83.4927 268.188H84.9147C85.0607 268.188 85.1597 268.143 85.2117 268.053C85.2657 267.963 85.2927 267.848 85.2927 267.708V267.546C85.2927 267.372 85.2567 267.251 85.1847 267.183C85.1127 267.113 84.9867 267.078 84.8067 267.078H83.4927V268.188ZM88.0428 270.642C87.7008 270.642 87.4338 270.573 87.2418 270.435C87.0518 270.297 86.9328 270.084 86.8848 269.796C86.8768 269.708 86.8948 269.642 86.9388 269.598C86.9828 269.554 87.0468 269.532 87.1308 269.532C87.2148 269.532 87.2758 269.552 87.3138 269.592C87.3538 269.632 87.3808 269.694 87.3948 269.778C87.4248 269.916 87.4888 270.011 87.5868 270.063C87.6868 270.113 87.8388 270.138 88.0428 270.138H88.9068C89.1648 270.138 89.3398 270.092 89.4318 270C89.5258 269.906 89.5728 269.732 89.5728 269.478C89.5728 269.22 89.5248 269.044 89.4288 268.95C89.3328 268.854 89.1588 268.806 88.9068 268.806H88.1628C87.7848 268.806 87.5038 268.714 87.3198 268.53C87.1378 268.344 87.0468 268.062 87.0468 267.684C87.0468 267.308 87.1368 267.029 87.3168 266.847C87.4988 266.665 87.7788 266.574 88.1568 266.574H88.8708C89.1888 266.574 89.4378 266.639 89.6178 266.769C89.7998 266.899 89.9148 267.098 89.9628 267.366C89.9748 267.452 89.9588 267.518 89.9148 267.564C89.8708 267.608 89.8048 267.63 89.7168 267.63C89.6368 267.63 89.5768 267.609 89.5368 267.567C89.4968 267.525 89.4708 267.464 89.4588 267.384C89.4268 267.266 89.3658 267.186 89.2758 267.144C89.1858 267.1 89.0508 267.078 88.8708 267.078H88.1568C87.9168 267.078 87.7558 267.121 87.6738 267.207C87.5918 267.291 87.5508 267.45 87.5508 267.684C87.5508 267.92 87.5928 268.082 87.6768 268.17C87.7608 268.258 87.9228 268.302 88.1628 268.302H88.9068C89.3008 268.302 89.5938 268.398 89.7858 268.59C89.9798 268.782 90.0768 269.078 90.0768 269.478C90.0768 269.876 89.9808 270.17 89.7888 270.36C89.5968 270.548 89.3028 270.642 88.9068 270.642H88.0428Z" fill="black" fill-opacity="0.25"/>
<circle cx="104.766" cy="268.454" r="7.92321" stroke="black" stroke-opacity="0.25" stroke-linecap="round" stroke-dasharray="4 2"/>
<path d="M100.719 270.93C100.635 270.93 100.572 270.909 100.53 270.867C100.488 270.825 100.467 270.762 100.467 270.678V267.372H99.3034C99.2194 267.372 99.1564 267.351 99.1144 267.309C99.0724 267.267 99.0514 267.204 99.0514 267.12C99.0514 267.036 99.0724 266.973 99.1144 266.931C99.1564 266.889 99.2194 266.868 99.3034 266.868H102.135C102.219 266.868 102.282 266.889 102.324 266.931C102.366 266.973 102.387 267.036 102.387 267.12C102.387 267.204 102.366 267.267 102.324 267.309C102.282 267.351 102.219 267.372 102.135 267.372H100.971V270.678C100.971 270.758 100.949 270.82 100.905 270.864C100.863 270.908 100.801 270.93 100.719 270.93ZM104.147 270.93C103.689 270.93 103.35 270.821 103.13 270.603C102.912 270.383 102.803 270.044 102.803 269.586V268.206C102.803 267.744 102.912 267.404 103.13 267.186C103.348 266.966 103.685 266.858 104.141 266.862H104.867C105.243 266.862 105.53 266.94 105.728 267.096C105.926 267.25 106.041 267.494 106.073 267.828C106.085 267.912 106.069 267.976 106.025 268.02C105.981 268.064 105.917 268.086 105.833 268.086C105.681 268.086 105.593 268.002 105.569 267.834C105.549 267.65 105.485 267.526 105.377 267.462C105.271 267.398 105.101 267.366 104.867 267.366H104.141C103.929 267.364 103.762 267.388 103.64 267.438C103.52 267.488 103.434 267.575 103.382 267.699C103.332 267.821 103.307 267.99 103.307 268.206V269.586C103.307 269.8 103.332 269.968 103.382 270.09C103.434 270.212 103.521 270.299 103.643 270.351C103.765 270.401 103.933 270.426 104.147 270.426H104.867C105.101 270.426 105.271 270.394 105.377 270.33C105.485 270.264 105.549 270.14 105.569 269.958C105.593 269.79 105.681 269.706 105.833 269.706C105.917 269.706 105.981 269.728 106.025 269.772C106.069 269.816 106.085 269.88 106.073 269.964C106.041 270.3 105.926 270.545 105.728 270.699C105.53 270.853 105.243 270.93 104.867 270.93H104.147ZM108.141 270.93C107.799 270.93 107.532 270.861 107.34 270.723C107.15 270.585 107.031 270.372 106.983 270.084C106.975 269.996 106.993 269.93 107.037 269.886C107.081 269.842 107.145 269.82 107.229 269.82C107.313 269.82 107.374 269.84 107.412 269.88C107.452 269.92 107.479 269.982 107.493 270.066C107.523 270.204 107.587 270.299 107.685 270.351C107.785 270.401 107.937 270.426 108.141 270.426H109.005C109.263 270.426 109.438 270.38 109.53 270.288C109.624 270.194 109.671 270.02 109.671 269.766C109.671 269.508 109.623 269.332 109.527 269.238C109.431 269.142 109.257 269.094 109.005 269.094H108.261C107.883 269.094 107.602 269.002 107.418 268.818C107.236 268.632 107.145 268.35 107.145 267.972C107.145 267.596 107.235 267.317 107.415 267.135C107.597 266.953 107.877 266.862 108.255 266.862H108.969C109.287 266.862 109.536 266.927 109.716 267.057C109.898 267.187 110.013 267.386 110.061 267.654C110.073 267.74 110.057 267.806 110.013 267.852C109.969 267.896 109.903 267.918 109.815 267.918C109.735 267.918 109.675 267.897 109.635 267.855C109.595 267.813 109.569 267.752 109.557 267.672C109.525 267.554 109.464 267.474 109.374 267.432C109.284 267.388 109.149 267.366 108.969 267.366H108.255C108.015 267.366 107.854 267.409 107.772 267.495C107.69 267.579 107.649 267.738 107.649 267.972C107.649 268.208 107.691 268.37 107.775 268.458C107.859 268.546 108.021 268.59 108.261 268.59H109.005C109.399 268.59 109.692 268.686 109.884 268.878C110.078 269.07 110.175 269.366 110.175 269.766C110.175 270.164 110.079 270.458 109.887 270.648C109.695 270.836 109.401 270.93 109.005 270.93H108.141Z" fill="black" fill-opacity="0.25"/>
<g filter="url(#filter2_i_26_2)">
<path d="M80.0606 281.213H173.646C166.649 289.576 156.306 294.409 145.402 294.409H108.794C97.7505 294.409 87.2571 289.59 80.0606 281.213Z" fill="black" fill-opacity="0.2"/>
</g>
<path d="M123.711 271.93C123.431 271.93 123.291 271.79 123.291 271.51V265.57C123.291 265.29 123.431 265.15 123.711 265.15H126.051C126.661 265.15 127.128 265.313 127.451 265.64C127.778 265.963 127.941 266.43 127.941 267.04V267.34C127.941 267.95 127.778 268.418 127.451 268.745C127.128 269.068 126.661 269.23 126.051 269.23H124.131V271.51C124.131 271.79 123.991 271.93 123.711 271.93ZM124.131 268.39H126.051C126.431 268.39 126.701 268.31 126.861 268.15C127.021 267.99 127.101 267.72 127.101 267.34V267.04C127.101 266.663 127.021 266.395 126.861 266.235C126.701 266.072 126.431 265.99 126.051 265.99H124.131V268.39Z" fill="black" fill-opacity="0.25"/>
<path d="M120.03 266.025C120.501 266.124 120.818 266.566 120.76 267.043L120.638 268.045C120.556 268.723 120.595 269.411 120.752 270.076C120.852 270.502 120.637 270.939 120.239 271.121L120.014 271.223L119.996 271.166C119.452 269.494 119.464 267.69 120.03 266.025Z" fill="black" fill-opacity="0.25"/>
<path d="M130.605 266.025C130.134 266.124 129.817 266.566 129.875 267.043L129.996 268.045C130.079 268.723 130.04 269.411 129.883 270.076C129.783 270.502 129.998 270.939 130.396 271.121L130.621 271.223L130.639 271.166C131.182 269.494 131.171 267.69 130.605 266.025Z" fill="black" fill-opacity="0.25"/>
<g filter="url(#filter3_i_26_2)">
<path fill-rule="evenodd" clip-rule="evenodd" d="M224.881 117.748C243.674 106.81 256.307 86.4498 256.307 63.1387C256.307 28.2682 228.039 0 193.169 0C158.298 0 130.03 28.2682 130.03 63.1387C130.03 64.8028 130.094 66.4518 130.221 68.0835C168.892 69.659 203.035 88.8028 224.881 117.748Z" fill="black" fill-opacity="0.63"/>
</g>
<path d="M228.467 99.2283C240.838 85.6281 244.138 76.5497 244.01 59.0508C243.82 32.8745 221.987 10.642 194.415 10.8421C166.842 11.0423 141.15 31.2909 141.34 57.4672" stroke="white" stroke-width="9" stroke-linecap="round" stroke-dasharray="0.1 15"/>
<g filter="url(#filter4_f_26_2)">
<path d="M191.787 6.23023H197.227L199.061 48.5606H190.253L191.787 6.23023Z" fill="url(#paint4_linear_26_2)" style="mix-blend-mode:hard-light"/>
<path d="M196.748 6.73023L198.539 48.0603H190.772L192.27 6.73023H196.748Z" stroke="url(#paint5_linear_26_2)" stroke-miterlimit="16"/>
</g>
<path d="M183.698 73.3461C183.101 73.3461 182.519 73.3141 181.954 73.2501C181.389 73.1861 180.839 73.0901 180.306 72.9621C179.783 72.8448 179.271 72.7061 178.77 72.5461C178.279 72.3861 177.81 72.2101 177.362 72.0181L177.794 67.5861C178.231 67.8421 178.679 68.0715 179.138 68.2741C179.607 68.4768 180.082 68.6475 180.562 68.7861C181.042 68.9141 181.517 69.0101 181.986 69.0741C182.466 69.1381 182.925 69.1701 183.362 69.1701C184.578 69.1701 185.543 68.8981 186.258 68.3541C186.983 67.7995 187.501 66.9568 187.81 65.8261C188.119 64.6955 188.274 63.2661 188.274 61.5381C188.274 59.9168 188.114 58.5995 187.794 57.5861C187.474 56.5621 187.021 55.8101 186.434 55.3301C185.847 54.8501 185.143 54.6101 184.322 54.6101C183.543 54.6101 182.903 54.7808 182.402 55.1221C181.901 55.4528 181.527 55.8901 181.282 56.4341C181.037 56.9781 180.914 57.5701 180.914 58.2101C180.914 58.8501 181.031 59.4208 181.266 59.9221C181.511 60.4235 181.879 60.8235 182.37 61.1221C182.861 61.4101 183.485 61.5541 184.242 61.5541C184.562 61.5541 184.887 61.5275 185.218 61.4741C185.559 61.4208 185.906 61.3248 186.258 61.1861C186.61 61.0475 186.957 60.8608 187.298 60.6261C187.65 60.3808 188.002 60.0661 188.354 59.6821C188.749 60.1728 189.005 60.5835 189.122 60.9141C189.25 61.2341 189.25 61.5648 189.122 61.9061C189.005 62.2368 188.765 62.6581 188.402 63.1701L187.842 63.1381C187.533 63.4368 187.191 63.7088 186.818 63.9541C186.445 64.1995 186.045 64.4075 185.618 64.5781C185.191 64.7488 184.733 64.8821 184.242 64.9781C183.751 65.0635 183.239 65.1061 182.706 65.1061C181.383 65.1061 180.215 64.8288 179.202 64.2741C178.199 63.7195 177.415 62.9355 176.85 61.9221C176.295 60.9088 176.018 59.7088 176.018 58.3221C176.018 56.9781 176.306 55.7088 176.882 54.5141C177.458 53.3088 178.338 52.3328 179.522 51.5861C180.717 50.8395 182.247 50.4661 184.114 50.4661C186.087 50.4661 187.741 50.8875 189.074 51.7301C190.407 52.5728 191.41 53.8261 192.082 55.4901C192.754 57.1435 193.09 59.1968 193.09 61.6501C193.09 63.6875 192.861 65.4475 192.402 66.9301C191.954 68.4128 191.314 69.6288 190.482 70.5781C189.661 71.5168 188.674 72.2155 187.522 72.6741C186.37 73.1221 185.095 73.3461 183.698 73.3461ZM202.168 73.3461C201.571 73.3461 200.989 73.3141 200.424 73.2501C199.859 73.1861 199.309 73.0901 198.776 72.9621C198.253 72.8448 197.741 72.7061 197.24 72.5461C196.749 72.3861 196.28 72.2101 195.832 72.0181L196.264 67.5861C196.701 67.8421 197.149 68.0715 197.608 68.2741C198.077 68.4768 198.552 68.6475 199.032 68.7861C199.512 68.9141 199.987 69.0101 200.456 69.0741C200.936 69.1381 201.395 69.1701 201.832 69.1701C203.048 69.1701 204.013 68.8981 204.728 68.3541C205.453 67.7995 205.971 66.9568 206.28 65.8261C206.589 64.6955 206.744 63.2661 206.744 61.5381C206.744 59.9168 206.584 58.5995 206.264 57.5861C205.944 56.5621 205.491 55.8101 204.904 55.3301C204.317 54.8501 203.613 54.6101 202.792 54.6101C202.013 54.6101 201.373 54.7808 200.872 55.1221C200.371 55.4528 199.997 55.8901 199.752 56.4341C199.507 56.9781 199.384 57.5701 199.384 58.2101C199.384 58.8501 199.501 59.4208 199.736 59.9221C199.981 60.4235 200.349 60.8235 200.84 61.1221C201.331 61.4101 201.955 61.5541 202.712 61.5541C203.032 61.5541 203.357 61.5275 203.688 61.4741C204.029 61.4208 204.376 61.3248 204.728 61.1861C205.08 61.0475 205.427 60.8608 205.768 60.6261C206.12 60.3808 206.472 60.0661 206.824 59.6821C207.219 60.1728 207.475 60.5835 207.592 60.9141C207.72 61.2341 207.72 61.5648 207.592 61.9061C207.475 62.2368 207.235 62.6581 206.872 63.1701L206.312 63.1381C206.003 63.4368 205.661 63.7088 205.288 63.9541C204.915 64.1995 204.515 64.4075 204.088 64.5781C203.661 64.7488 203.203 64.8821 202.712 64.9781C202.221 65.0635 201.709 65.1061 201.176 65.1061C199.853 65.1061 198.685 64.8288 197.672 64.2741C196.669 63.7195 195.885 62.9355 195.32 61.9221C194.765 60.9088 194.488 59.7088 194.488 58.3221C194.488 56.9781 194.776 55.7088 195.352 54.5141C195.928 53.3088 196.808 52.3328 197.992 51.5861C199.187 50.8395 200.717 50.4661 202.584 50.4661C204.557 50.4661 206.211 50.8875 207.544 51.7301C208.877 52.5728 209.88 53.8261 210.552 55.4901C211.224 57.1435 211.56 59.1968 211.56 61.6501C211.56 63.6875 211.331 65.4475 210.872 66.9301C210.424 68.4128 209.784 69.6288 208.952 70.5781C208.131 71.5168 207.144 72.2155 205.992 72.6741C204.84 73.1221 203.565 73.3461 202.168 73.3461Z" fill="white"/>
<path d="M218.49 55.2481C218.49 54.8648 218.49 54.4931 218.49 54.1331C218.49 53.7731 218.49 53.3698 218.49 52.9231V50.5031C218.49 50.0431 218.49 49.6281 218.49 49.2581C218.49 48.8881 218.49 48.5081 218.49 48.1181C218.78 48.1181 219.169 48.1181 219.655 48.1181C220.145 48.1181 220.71 48.1181 221.35 48.1181C221.927 48.1181 222.409 48.1898 222.795 48.3331C223.185 48.4764 223.477 48.7131 223.67 49.0431C223.867 49.3698 223.965 49.8098 223.965 50.3631C223.965 50.8331 223.882 51.2481 223.715 51.6081C223.549 51.9648 223.279 52.2448 222.905 52.4481C222.532 52.6481 222.039 52.7481 221.425 52.7481C221.262 52.7481 221.087 52.7481 220.9 52.7481C220.717 52.7481 220.537 52.7481 220.36 52.7481C220.184 52.7481 220.032 52.7481 219.905 52.7481V51.4981H221.05C221.337 51.4981 221.572 51.4598 221.755 51.3831C221.939 51.3064 222.074 51.1881 222.16 51.0281C222.25 50.8648 222.295 50.6548 222.295 50.3981C222.295 50.1948 222.264 50.0281 222.2 49.8981C222.14 49.7681 222.059 49.6681 221.955 49.5981C221.852 49.5281 221.737 49.4798 221.61 49.4531C221.487 49.4231 221.362 49.4081 221.235 49.4081H219.325L220.11 48.3781C220.11 48.7681 220.11 49.1481 220.11 49.5181C220.11 49.8881 220.11 50.3031 220.11 50.7631V52.9231C220.11 53.3698 220.11 53.7731 220.11 54.1331C220.11 54.4931 220.11 54.8648 220.11 55.2481H218.49Z" fill="white" fill-opacity="0.38"/>
<path d="M220.76 64.7473C220.464 64.7473 220.159 64.7223 219.845 64.6723C219.535 64.6256 219.244 64.564 218.97 64.4873C218.7 64.4106 218.48 64.3306 218.31 64.2473L218.43 62.8023C218.66 62.9323 218.9 63.044 219.15 63.1373C219.404 63.2273 219.655 63.2973 219.905 63.3473C220.159 63.3973 220.4 63.4223 220.63 63.4223C220.86 63.4223 221.06 63.394 221.23 63.3373C221.4 63.2806 221.532 63.1956 221.625 63.0823C221.719 62.9656 221.765 62.8156 221.765 62.6323C221.765 62.4456 221.704 62.2923 221.58 62.1723C221.46 62.049 221.287 61.9423 221.06 61.8523C220.834 61.759 220.564 61.6673 220.25 61.5773C219.817 61.4506 219.447 61.304 219.14 61.1373C218.834 60.9673 218.599 60.7506 218.435 60.4873C218.275 60.2206 218.195 59.879 218.195 59.4623C218.195 59.0456 218.287 58.679 218.47 58.3623C218.654 58.0423 218.93 57.7923 219.3 57.6123C219.67 57.4323 220.139 57.3423 220.705 57.3423C220.929 57.3423 221.152 57.3573 221.375 57.3873C221.599 57.414 221.815 57.4506 222.025 57.4973C222.239 57.544 222.435 57.5973 222.615 57.6573C222.795 57.7173 222.952 57.7806 223.085 57.8473L222.96 59.2973C222.747 59.164 222.525 59.0523 222.295 58.9623C222.065 58.8723 221.84 58.804 221.62 58.7573C221.4 58.7106 221.2 58.6873 221.02 58.6873C220.817 58.6873 220.632 58.714 220.465 58.7673C220.302 58.8206 220.172 58.9023 220.075 59.0123C219.979 59.1223 219.93 59.2606 219.93 59.4273C219.93 59.5906 219.975 59.729 220.065 59.8423C220.159 59.9523 220.3 60.0506 220.49 60.1373C220.684 60.2206 220.932 60.3073 221.235 60.3973C221.805 60.5673 222.255 60.7456 222.585 60.9323C222.915 61.1156 223.149 61.3373 223.285 61.5973C223.425 61.8573 223.495 62.184 223.495 62.5773C223.495 63.014 223.4 63.3956 223.21 63.7223C223.02 64.0456 222.724 64.2973 222.32 64.4773C221.917 64.6573 221.397 64.7473 220.76 64.7473Z" fill="white" fill-opacity="0.38"/>
<path d="M218.525 74.2415C218.525 73.8582 218.525 73.4865 218.525 73.1265C218.525 72.7665 218.525 72.3632 218.525 71.9165V69.4965C218.525 69.0365 218.525 68.6215 218.525 68.2515C218.525 67.8815 218.525 67.5015 218.525 67.1115H220.205C220.205 67.5015 220.205 67.8815 220.205 68.2515C220.205 68.6215 220.205 69.0365 220.205 69.4965V71.9165C220.205 72.3632 220.205 72.7665 220.205 73.1265C220.205 73.4865 220.205 73.8582 220.205 74.2415H218.525Z" fill="white" fill-opacity="0.38"/>
<defs>
<filter id="filter0_f_26_2" x="116.943" y="86.9681" width="16.1257" height="75.5966" filterUnits="userSpaceOnUse" color-interpolation-filters="sRGB">
<feFlood flood-opacity="0" result="BackgroundImageFix"/>
<feBlend mode="normal" in="SourceGraphic" in2="BackgroundImageFix" result="shape"/>
<feGaussianBlur stdDeviation="0.125" result="effect1_foregroundBlur_26_2"/>
</filter>
<filter id="filter1_f_26_2" x="55.1935" y="53.5181" width="139.709" height="114.83" filterUnits="userSpaceOnUse" color-interpolation-filters="sRGB">
<feFlood flood-opacity="0" result="BackgroundImageFix"/>
<feBlend mode="normal" in="SourceGraphic" in2="BackgroundImageFix" result="shape"/>
<feGaussianBlur stdDeviation="16.85" result="effect1_foregroundBlur_26_2"/>
</filter>
<filter id="filter2_i_26_2" x="80.0606" y="281.213" width="93.5855" height="15.1951" filterUnits="userSpaceOnUse" color-interpolation-filters="sRGB">
<feFlood flood-opacity="0" result="BackgroundImageFix"/>
<feBlend mode="normal" in="SourceGraphic" in2="BackgroundImageFix" result="shape"/>
<feColorMatrix in="SourceAlpha" type="matrix" values="0 0 0 0 0 0 0 0 0 0 0 0 0 0 0 0 0 0 127 0" result="hardAlpha"/>
<feOffset dy="2"/>
<feGaussianBlur stdDeviation="2"/>
<feComposite in2="hardAlpha" operator="arithmetic" k2="-1" k3="1"/>
<feColorMatrix type="matrix" values="0 0 0 0 0 0 0 0 0 0 0 0 0 0 0 0 0 0 0.25 0"/>
<feBlend mode="normal" in2="shape" result="effect1_innerShadow_26_2"/>
</filter>
<filter id="filter3_i_26_2" x="130.03" y="-2" width="128.277" height="119.748" filterUnits="userSpaceOnUse" color-interpolation-filters="sRGB">
<feFlood flood-opacity="0" result="BackgroundImageFix"/>
<feBlend mode="normal" in="SourceGraphic" in2="BackgroundImageFix" result="shape"/>
<feColorMatrix in="SourceAlpha" type="matrix" values="0 0 0 0 0 0 0 0 0 0 0 0 0 0 0 0 0 0 127 0" result="hardAlpha"/>
<feOffset dx="2" dy="-2"/>
<feGaussianBlur stdDeviation="2"/>
<feComposite in2="hardAlpha" operator="arithmetic" k2="-1" k3="1"/>
<feColorMatrix type="matrix" values="0 0 0 0 0 0 0 0 0 0 0 0 0 0 0 0 0 0 0.25 0"/>
<feBlend mode="normal" in2="shape" result="effect1_innerShadow_26_2"/>
</filter>
<filter id="filter4_f_26_2" x="190.003" y="5.98023" width="9.30785" height="42.8304" filterUnits="userSpaceOnUse" color-interpolation-filters="sRGB">
<feFlood flood-opacity="0" result="BackgroundImageFix"/>
<feBlend mode="normal" in="SourceGraphic" in2="BackgroundImageFix" result="shape"/>
<feGaussianBlur stdDeviation="0.125" result="effect1_foregroundBlur_26_2"/>
</filter>
<linearGradient id="paint0_linear_26_2" x1="126.853" y1="105.076" x2="126.853" y2="245.287" gradientUnits="userSpaceOnUse">
<stop offset="0.370192"/>
<stop offset="1" stop-color="#666666" stop-opacity="0"/>
</linearGradient>
<linearGradient id="paint1_linear_26_2" x1="216.423" y1="247.027" x2="199.777" y2="216.902" gradientUnits="userSpaceOnUse">
<stop offset="0.9999" stop-color="#FF0000"/>
<stop offset="1" stop-color="#999999"/>
</linearGradient>
<linearGradient id="paint2_linear_26_2" x1="125.005" y1="87.2181" x2="125.615" y2="155.749" gradientUnits="userSpaceOnUse">
<stop stop-color="#FF4842" stop-opacity="0.95"/>
<stop offset="0.9999" stop-color="#C83934" stop-opacity="0"/>
<stop offset="1" stop-color="#992B28" stop-opacity="0"/>
</linearGradient>
<linearGradient id="paint3_linear_26_2" x1="125.005" y1="87.2181" x2="124.656" y2="151.72" gradientUnits="userSpaceOnUse">
<stop stop-color="white"/>
<stop offset="1" stop-color="white" stop-opacity="0"/>
</linearGradient>
<linearGradient id="paint4_linear_26_2" x1="194.657" y1="6.23023" x2="195.001" y2="44.8597" gradientUnits="userSpaceOnUse">
<stop stop-color="#FF4842" stop-opacity="0.95"/>
<stop offset="0.9999" stop-color="#C83934" stop-opacity="0"/>
<stop offset="1" stop-color="#992B28" stop-opacity="0"/>
</linearGradient>
<linearGradient id="paint5_linear_26_2" x1="194.657" y1="6.23023" x2="194.46" y2="42.5884" gradientUnits="userSpaceOnUse">
<stop stop-color="white"/>
<stop offset="1" stop-color="white" stop-opacity="0"/>
</linearGradient>
</defs>
</svg>
