<svg width="257" height="318" viewBox="0 0 257 318" fill="none" xmlns="http://www.w3.org/2000/svg">
<!-- Gauge Background and Base -->
<path fill-rule="evenodd" clip-rule="evenodd" d="M227.778 262.435C228.23 262.683 228.797 262.547 229.084 262.118C242.335 242.28 250.011 218.588 250.011 192.936C250.011 123.897 194.044 67.9301 125.0 67.9301C55.9558 67.9301 0 123.897 0 192.936C0 218.588 7.67633 242.28 20.9266 262.118C21.2027 262.547 21.7702 262.683 22.2222 262.435C35.1396 255.089 54.6768 245.749 125.0 245.749C195.323 245.749 214.86 255.089 227.778 262.435Z" fill="url(#paint0_linear_26_2)"/>
<path d="M126.853 105.076C176.324 105.076 216.427 145.18 216.427 194.65C216.427 213.442 210.64 230.883 200.751 245.287H52.9555C43.0666 230.883 37.2797 213.442 37.2797 194.65C37.2797 145.18 77.3832 105.076 126.853 105.076Z" fill="url(#paint1_linear_26_2)"/>
<path d="M125.005 92.3056C69.429 92.3056 24.3755 137.359 24.3755 192.936C24.3755 211.729 29.5274 229.319 38.4959 244.371M124.973 92.3056C180.55 92.3056 225.603 137.359 225.603 192.936C225.603 211.729 220.451 229.319 211.482 244.371" stroke="url(#paint1_linear_26_2)" stroke-width="1.5" stroke-linecap="round"/>

<!-- Needle Glow Effect -->
<g filter="url(#filter0_f_26_2)">
<path id="needle-glow" d="M119.915 87.2181H129.564L132.818 162.315H117.193L119.915 87.2181Z" fill="url(#paint2_linear_26_2)" style="mix-blend-mode:hard-light"/>
<path d="M129.085 87.7181L132.296 161.815H117.711L120.397 87.7181H129.085Z" stroke="url(#paint3_linear_26_2)" stroke-miterlimit="16"/>
</g>

<!-- Main Needle Group (rotates around center) -->
<g id="needle-group" transform-origin="125 110">
<path id="needle-main" d="M123.711 271.93C123.431 271.93 123.291 271.79 123.291 271.51V265.57C123.291 265.29 123.431 265.15 123.711 265.15H126.051C126.661 265.15 127.128 265.313 127.451 265.64C127.778 265.963 127.941 266.43 127.941 267.04V271.51C127.941 271.79 127.801 271.93 127.521 271.93H123.711Z" fill="#FF4842"/>
</g>

<!-- Gauge markings and indicators -->
<path d="M224.614 266.646C225.134 266.94 225.279 267.625 224.924 268.105C200.985 300.455 166.913 317.941 124.231 317.941C81.5221 317.941 45.1882 294.953 25.1972 268.228C24.8453 267.758 24.9826 267.073 25.503 266.779C48.4423 253.637 76.5588 245.749 124.231 245.749C171.903 245.749 200.02 253.637 224.614 266.646Z" fill="black" fill-opacity="0.1"/>

<!-- Bottom Section Background -->
<rect x="10" y="255" width="237" height="60" rx="4" fill="#1a1a1a" fill-opacity="0.8"/>
<rect x="10" y="255" width="237" height="60" rx="4" fill="none" stroke="#333333" stroke-width="1" stroke-opacity="0.5"/>

<!-- Indicator Lights Panel (Left side) -->
<g id="indicator-lights">
  <!-- Oil Pressure Light -->
  <circle id="light-oil" cx="25" cy="275" r="6" fill="#FF0000" fill-opacity="0.2"/>
  <circle id="light-oil-glow" cx="25" cy="275" r="6" fill="none" stroke="#FF0000" stroke-width="1"/>
  <text x="25" y="293" text-anchor="middle" font-size="8" fill="#cccccc">OIL</text>
  
  <!-- Temperature Light -->
  <circle id="light-temp" cx="50" cy="275" r="6" fill="#FF6600" fill-opacity="0.2"/>
  <circle id="light-temp-glow" cx="50" cy="275" r="6" fill="none" stroke="#FF6600" stroke-width="1"/>
  <text x="50" y="293" text-anchor="middle" font-size="8" fill="#cccccc">TEMP</text>
  
  <!-- Battery Light -->
  <circle id="light-battery" cx="75" cy="275" r="6" fill="#FFFF00" fill-opacity="0.2"/>
  <circle id="light-battery-glow" cx="75" cy="275" r="6" fill="none" stroke="#FFFF00" stroke-width="1"/>
  <text x="75" y="293" text-anchor="middle" font-size="8" fill="#cccccc">BAT</text>
  
  <!-- Check Engine Light -->
  <circle id="light-check" cx="100" cy="275" r="6" fill="#FF4842" fill-opacity="0.2"/>
  <circle id="light-check-glow" cx="100" cy="275" r="6" fill="none" stroke="#FF4842" stroke-width="1"/>
  <text x="100" y="293" text-anchor="middle" font-size="8" fill="#cccccc">CHK</text>
</g>

<!-- Multifunction Display Panel (Center/Right) -->
<g id="mfd-panel">
  <!-- Display background -->
  <rect x="120" y="260" width="115" height="50" fill="#0a0a0a" fill-opacity="0.6" rx="2"/>
  <rect x="120" y="260" width="115" height="50" fill="none" stroke="#00AA00" stroke-width="0.5" stroke-opacity="0.3"/>
  
  <!-- Main display line 1 (Speed/Gear) -->
  <text id="mfd-line1" x="127" y="275" font-family="monospace" font-size="11" font-weight="bold" fill="#00FF00" font-feature-settings="'tnum'">GEAR: N</text>
  
  <!-- Main display line 2 (Speed) -->
  <text id="mfd-line2" x="127" y="290" font-family="monospace" font-size="11" font-weight="bold" fill="#00FF00" font-feature-settings="'tnum'">SPD: 0 km/h</text>
  
  <!-- Main display line 3 (Fuel/Coolant) -->
  <text id="mfd-line3" x="127" y="305" font-family="monospace" font-size="10" fill="#00DD00" font-feature-settings="'tnum'">FUEL: 100%</text>
</g>

<!-- Center cap -->
<circle cx="125.069" cy="110" r="8" fill="#FF4842" fill-opacity="0.8"/>

<!-- Defs for gradients and filters -->
<defs>
<filter id="filter0_f_26_2" x="116.943" y="86.9681" width="16.1257" height="75.5966" filterUnits="userSpaceOnUse" color-interpolation-filters="sRGB">
<feFlood flood-opacity="0" result="BackgroundImageFix"/>
<feBlend mode="normal" in="SourceGraphic" in2="BackgroundImageFix" result="shape"/>
<feGaussianBlur stdDeviation="0.125" result="effect1_foregroundBlur_26_2"/>
</filter>

<linearGradient id="paint0_linear_26_2" x1="126.853" y1="105.076" x2="126.853" y2="245.287" gradientUnits="userSpaceOnUse">
<stop offset="0.370192"/>
<stop offset="1" stop-color="#666666" stop-opacity="0"/>
</linearGradient>

<linearGradient id="paint1_linear_26_2" x1="216.423" y1="247.027" x2="199.777" y2="216.902" gradientUnits="userSpaceOnUse">
<stop offset="0.9999" stop-color="#FF0000"/>
<stop offset="1" stop-color="#999999"/>
</linearGradient>

<linearGradient id="paint2_linear_26_2" x1="125.005" y1="87.2181" x2="125.615" y2="155.749" gradientUnits="userSpaceOnUse">
<stop stop-color="#FF4842" stop-opacity="0.95"/>
<stop offset="0.9999" stop-color="#C83934" stop-opacity="0"/>
<stop offset="1" stop-color="#992B28" stop-opacity="0"/>
</linearGradient>

<linearGradient id="paint3_linear_26_2" x1="125.005" y1="87.2181" x2="124.656" y2="151.72" gradientUnits="userSpaceOnUse">
<stop stop-color="white"/>
<stop offset="1" stop-color="white" stop-opacity="0"/>
</linearGradient>
</defs>
</svg>
